<?xml version="1.0" encoding="utf-8"?>
<!DOCTYPE svg PUBLIC "-//W3C//DTD SVG 1.1//EN" "http://www.w3.org/Graphics/SVG/1.1/DTD/svg11.dtd">
<svg version="1.1" xmlns="http://www.w3.org/2000/svg" xmlns:xlink="http://www.w3.org/1999/xlink" x="0px" y="0px" viewBox="0 0 256 256" enable-background="new 0 0 256 256" xml:space="preserve">
<metadata> Svg Vector Icons : http://www.onlinewebfonts.com/icon </metadata>
<g><g><path fill="#000000" d="M128,10C62.8,10,10,62.8,10,128c0,65.2,52.8,118,118,118c65.2,0,118-52.8,118-118C246,62.8,193.2,10,128,10z M128,231.3C71,231.3,24.8,185,24.8,128C24.8,71,71,24.7,128,24.7c57,0,103.3,46.2,103.3,103.3C231.3,185,185,231.3,128,231.3z"/><path fill="#000000" d="M158.8,135.6c13.9-9.6,23-25.6,23-43.8c0-29.4-23.9-53.2-53.3-53.2c-29.4,0-53.3,23.9-53.3,53.2c0,18.1,9.1,34.1,23,43.8c-29.2,12-49.8,40.7-49.8,74.1c0,4.3,3.5,7.8,7.8,7.8c4.3,0,7.7-3.4,7.7-7.8c0-35.6,29-64.6,64.6-64.6s64.6,29,64.6,64.6c0,4.3,3.5,7.8,7.7,7.8c4.3,0,7.7-3.4,7.7-7.8C208.6,176.2,188,147.6,158.8,135.6z M90.8,91.8C90.8,71,107.7,54,128.6,54c20.8,0,37.8,17,37.8,37.8c0,20.8-17,37.8-37.8,37.8C107.7,129.6,90.8,112.7,90.8,91.8z"/></g></g>
</svg>